<?xml version="1.0" encoding="utf-8"?>
<!-- Generator: Adobe Illustrator 16.0.0, SVG Export Plug-In . SVG Version: 6.00 Build 0)  -->
<!DOCTYPE svg PUBLIC "-//W3C//DTD SVG 1.1//EN" "http://www.w3.org/Graphics/SVG/1.1/DTD/svg11.dtd">
<svg version="1.1" id="Layer_1" xmlns="http://www.w3.org/2000/svg" xmlns:xlink="http://www.w3.org/1999/xlink" x="0px" y="0px"
	 width="612px" height="257.25px" viewBox="0 0 612 257.25" enable-background="new 0 0 612 257.25" xml:space="preserve">
<g id="EPIC_Capital_Logo_11_">
	<g>
		<g id="EPIC_9_">
			<polygon id="c-1_9_" fill="#414042" points="593.487,0 593.487,35.275 462.816,35.275 462.816,129.84 593.487,129.84 
				593.487,165.252 612,165.252 612,0 			"/>
			<path id="i-1_8_" fill="#414042" d="M426.839,131.689V33.42c0-9.577,3.334-17.69,9.981-24.338C441.534,4.377,447,1.371,453.189,0
				h-43.06v165.252h43.65c-6.437-1.306-12.095-4.369-16.96-9.226C430.173,149.385,426.839,141.275,426.839,131.689z"/>
			<path id="p-2_8_" fill="#414042" d="M347.001,7.511c6.806,6.72,10.207,14.8,10.207,24.217v43.11
				c0,9.428-3.401,17.502-10.207,24.22c-6.815,6.726-14.936,10.081-24.374,10.081l-96.549,0.231c0.462,0,0.697,0.465,0.697,1.393
				c-0.313,0-0.545-0.074-0.697-0.232v54.72H373.92V0h-38.009C339.928,1.68,343.625,4.181,347.001,7.511z"/>
			<rect id="p-1_8_" x="226.078" y="33.35" fill="#414042" width="94.691" height="39.637"/>
			<polygon id="e-2_8_" fill="#414042" points="173.391,35.275 55.484,35.275 55.484,64.478 150.411,64.478 150.411,100.633 
				55.484,100.633 55.484,129.84 173.391,129.84 173.391,165.252 190.102,165.252 190.102,0 173.391,0 			"/>
			<rect id="e-1_8_" fill="#414042" width="18.514" height="165.252"/>
		</g>
		<g id="Capital_Solutions_8_">
			<path fill="#414042" d="M509.766,202.969h-23.121c-0.512,0-0.955,0.185-1.325,0.553c-0.369,0.372-0.553,0.811-0.553,1.326v23.12
				c0,0.515,0.184,0.956,0.553,1.323c0.37,0.37,0.813,0.555,1.325,0.555h23.121c0.513,0,0.954-0.186,1.323-0.555
				c0.369-0.368,0.556-0.809,0.556-1.323v-23.12c0-0.515-0.187-0.954-0.556-1.326C510.72,203.153,510.278,202.969,509.766,202.969z"
				/>
			<path fill="#414042" d="M129.686,203.015h-23.12c-0.514,0-0.956,0.185-1.325,0.555c-0.37,0.37-0.554,0.811-0.554,1.324v10.165
				c0,0.514,0.184,0.947,0.554,1.299c0.369,0.355,0.811,0.531,1.325,0.531h23.12c0.514,0,0.955-0.176,1.324-0.531
				c0.37-0.352,0.555-0.785,0.555-1.299v-10.165c0-0.513-0.185-0.954-0.555-1.324C130.641,203.2,130.2,203.015,129.686,203.015z"/>
			<path fill="#414042" d="M345.325,202.969h-23.119c-0.515,0-0.957,0.185-1.326,0.553c-0.367,0.372-0.553,0.811-0.553,1.326v23.12
				c0,0.515,0.186,0.956,0.553,1.323c0.369,0.37,0.812,0.555,1.326,0.555h23.119c0.514,0,0.956-0.186,1.324-0.555
				c0.369-0.368,0.555-0.809,0.555-1.323v-23.12c0-0.515-0.186-0.954-0.555-1.326C346.281,203.153,345.839,202.969,345.325,202.969z
				"/>
			<path fill="#414042" d="M215.036,202.969h-23.119c-0.515,0-0.958,0.185-1.326,0.553c-0.369,0.372-0.555,0.811-0.555,1.326v12.331
				h26.878v-12.331c0-0.515-0.187-0.954-0.554-1.326C215.991,203.153,215.549,202.969,215.036,202.969z"/>
			<path fill="#414042" d="M0,174.296v82.955h612v-82.955H0z M55.509,202.969H26.706c-0.514,0-0.956,0.185-1.325,0.553
				c-0.37,0.372-0.554,0.811-0.554,1.326v23.12c0,0.515,0.184,0.956,0.554,1.323c0.369,0.37,0.811,0.555,1.325,0.555h28.803v3.901
				H26.706c-1.607,0-2.971-0.561-4.094-1.685c-1.125-1.126-1.686-2.488-1.686-4.095v-23.12c0-1.607,0.562-2.969,1.686-4.095
				c1.123-1.124,2.487-1.687,4.094-1.687h28.803V202.969z M95.296,233.746h-3.902v-12.668H64.516v12.668h-3.9v-28.899
				c0-1.607,0.561-2.969,1.685-4.095c1.125-1.124,2.488-1.687,4.095-1.687h23.119c1.605,0,2.971,0.563,4.094,1.687
				c1.124,1.125,1.687,2.488,1.687,4.095V233.746z M135.466,215.058c0,1.606-0.563,2.969-1.687,4.095
				c-1.124,1.122-2.488,1.685-4.094,1.685h-23.12c-0.289,0-0.916-0.065-1.878-0.193v13.102h-3.902v-34.632h28.9
				c1.606,0,2.97,0.563,4.094,1.687c1.124,1.124,1.687,2.49,1.687,4.093V215.058z M142.835,233.746h-3.902v-34.681h3.902V233.746z
				 M182.426,202.969h-15.364v30.777h-3.902v-30.777h-15.413v-3.903h34.679V202.969z M220.816,233.746h-3.901v-12.668h-26.878
				v12.668h-3.901v-28.899c0-1.607,0.562-2.969,1.685-4.095c1.124-1.124,2.489-1.687,4.096-1.687h23.119
				c1.605,0,2.969,0.563,4.093,1.687c1.124,1.125,1.687,2.488,1.687,4.095V233.746z M261.035,233.746h-34.681v-34.729h3.902v30.828
				h30.779V233.746z M311.369,206.194h-3.901v-1.347c0-0.515-0.187-0.954-0.555-1.326c-0.37-0.368-0.811-0.553-1.324-0.553h-23.121
				c-0.515,0-0.956,0.185-1.326,0.553c-0.368,0.372-0.553,0.811-0.553,1.326v7.753c0,0.517,0.185,0.949,0.553,1.302
				c0.37,0.353,0.811,0.529,1.326,0.529h23.121c1.604,0,2.969,0.563,4.093,1.686c1.125,1.125,1.688,2.487,1.688,4.095v7.755
				c0,1.606-0.563,2.969-1.688,4.095c-1.124,1.124-2.488,1.685-4.093,1.685h-23.121c-1.607,0-2.971-0.561-4.095-1.685
				c-1.125-1.126-1.686-2.488-1.686-4.095v-1.349h3.902v1.349c0,0.515,0.185,0.956,0.553,1.323c0.37,0.37,0.811,0.555,1.326,0.555
				h23.121c0.513,0,0.954-0.186,1.324-0.555c0.369-0.368,0.555-0.809,0.555-1.323v-7.755c0-0.515-0.187-0.948-0.555-1.302
				c-0.37-0.352-0.811-0.528-1.324-0.528h-23.121c-1.607,0-2.971-0.563-4.095-1.687c-1.125-1.123-1.686-2.488-1.686-4.095v-7.753
				c0-1.607,0.561-2.969,1.686-4.095c1.124-1.124,2.488-1.687,4.095-1.687h23.121c1.604,0,2.969,0.563,4.093,1.687
				c1.125,1.125,1.688,2.488,1.688,4.095V206.194z M351.105,227.967c0,1.606-0.563,2.969-1.685,4.095
				c-1.125,1.124-2.49,1.685-4.096,1.685h-23.119c-1.607,0-2.971-0.561-4.095-1.685c-1.123-1.126-1.686-2.488-1.686-4.095v-23.12
				c0-1.607,0.563-2.969,1.686-4.095c1.124-1.124,2.487-1.687,4.095-1.687h23.119c1.605,0,2.971,0.563,4.096,1.687
				c1.122,1.125,1.685,2.488,1.685,4.095V227.967z M391.131,233.746h-34.678v-34.729h3.9v30.828h30.777V233.746z M428.509,227.967
				c0,1.606-0.562,2.969-1.686,4.095c-1.125,1.124-2.489,1.685-4.095,1.685h-23.12c-1.604,0-2.97-0.561-4.094-1.685
				c-1.125-1.126-1.686-2.488-1.686-4.095v-28.901h3.901v28.901c0,0.515,0.185,0.956,0.553,1.323c0.37,0.37,0.812,0.555,1.325,0.555
				h23.12c0.513,0,0.955-0.186,1.325-0.555c0.368-0.368,0.553-0.809,0.553-1.323v-28.901h3.902V227.967z M466.753,202.969h-15.364
				v30.777h-3.902v-30.777h-15.415v-3.903h34.682V202.969z M474.314,233.746h-3.901v-34.681h3.901V233.746z M515.545,227.967
				c0,1.606-0.563,2.969-1.686,4.095c-1.125,1.124-2.489,1.685-4.094,1.685h-23.121c-1.605,0-2.97-0.561-4.094-1.685
				c-1.125-1.126-1.686-2.488-1.686-4.095v-23.12c0-1.607,0.561-2.969,1.686-4.095c1.124-1.124,2.488-1.687,4.094-1.687h23.121
				c1.604,0,2.969,0.563,4.094,1.687c1.122,1.125,1.686,2.488,1.686,4.095V227.967z M555.521,233.746h-5.346l-25.431-30.248v30.248
				h-3.904v-34.681h5.348l25.433,30.25v-30.25h3.9V233.746z M595.355,206.194h-3.902v-1.347c0-0.515-0.185-0.954-0.553-1.326
				c-0.369-0.368-0.813-0.553-1.325-0.553h-23.12c-0.514,0-0.955,0.185-1.325,0.553c-0.369,0.372-0.553,0.811-0.553,1.326v7.753
				c0,0.517,0.184,0.949,0.553,1.302c0.37,0.353,0.812,0.529,1.325,0.529h23.12c1.605,0,2.97,0.563,4.093,1.686
				c1.126,1.125,1.688,2.487,1.688,4.095v7.755c0,1.606-0.562,2.969-1.688,4.095c-1.123,1.124-2.487,1.685-4.093,1.685h-23.12
				c-1.605,0-2.97-0.561-4.094-1.685c-1.125-1.126-1.688-2.488-1.688-4.095v-1.349h3.903v1.349c0,0.515,0.184,0.956,0.553,1.323
				c0.37,0.37,0.812,0.555,1.325,0.555h23.12c0.513,0,0.956-0.186,1.325-0.555c0.368-0.368,0.553-0.809,0.553-1.323v-7.755
				c0-0.515-0.185-0.948-0.553-1.302c-0.369-0.352-0.813-0.528-1.325-0.528h-23.12c-1.605,0-2.97-0.563-4.094-1.687
				c-1.125-1.123-1.688-2.488-1.688-4.095v-7.753c0-1.607,0.563-2.969,1.688-4.095c1.124-1.124,2.488-1.687,4.094-1.687h23.12
				c1.605,0,2.97,0.563,4.093,1.687c1.126,1.125,1.688,2.488,1.688,4.095V206.194z"/>
			<path fill="#414042" d="M89.515,202.969H66.396c-0.514,0-0.957,0.185-1.326,0.553c-0.37,0.372-0.554,0.811-0.554,1.326v12.331
				h26.877v-12.331c0-0.515-0.185-0.954-0.553-1.326C90.471,203.153,90.029,202.969,89.515,202.969z"/>
		</g>
	</g>
</g>
</svg>
